# 3ds Max Wavefront OBJ Exporter v0.97b - (c)2007 guruware
# File Created: 07.06.2020 18:32:46

mtllib tank turret.mtl

#
# object Box002
#

v  -10.0000 10.0000 10.0000
v  -10.0000 10.0000 -10.0000
v  10.0000 10.0000 -10.0000
v  10.0000 10.0000 10.0000
v  -10.0000 20.0000 10.0000
v  10.0000 20.0000 10.0000
v  10.0000 20.0000 -10.0000
v  -10.0000 20.0000 -10.0000
# 8 vertices

vn -0.5774 -0.5774 0.5774
vn -0.5774 -0.5774 -0.5774
vn 0.5774 -0.5774 -0.5774
vn 0.5774 -0.5774 0.5774
vn -0.5774 0.5774 0.5774
vn 0.5774 0.5774 0.5774
vn 0.5774 0.5774 -0.5774
vn -0.5774 0.5774 -0.5774
# 8 vertex normals

vt 20.0000 0.0000 0.0000
vt 20.0000 20.0000 0.0000
vt 0.0000 20.0000 0.0000
vt 0.0000 0.0000 0.0000
vt 20.0000 10.0000 0.0000
vt 0.0000 10.0000 0.0000
# 6 texture coords

o Box002
g Box002
usemtl wire_088144225
s 2
f 1/1/1 2/2/2 3/3/3 4/4/4 
s 4
f 5/4/5 6/1/6 7/2/7 8/3/8 
s 8
f 1/4/1 4/1/4 6/5/6 5/6/5 
s 16
f 4/4/4 3/1/3 7/5/7 6/6/6 
s 32
f 3/4/3 2/1/2 8/5/8 7/6/7 
s 64
f 2/4/2 1/1/1 5/5/5 8/6/8 
# 6 polygons

#
# object Cylinder009
#

v  0.0000 14.8984 8.6539
v  -1.4506 13.6812 8.6539
v  -1.7795 14.2508 8.6539
v  -1.8937 14.8984 8.6539
v  -0.3288 13.0335 8.6539
v  -0.9468 13.2585 8.6539
v  0.9468 13.2585 8.6539
v  0.3288 13.0335 8.6539
v  1.7795 14.2508 8.6539
v  1.4506 13.6812 8.6539
v  1.7795 15.5461 8.6539
v  1.8937 14.8984 8.6539
v  0.9468 16.5384 8.6539
v  1.4506 16.1157 8.6539
v  -0.3288 16.7634 8.6539
v  0.3288 16.7634 8.6539
v  -1.4506 16.1157 8.6539
v  -0.9468 16.5384 8.6539
v  -1.7795 15.5461 8.6539
v  -1.7795 14.2508 13.6109
v  -1.8937 14.8984 13.6109
v  -1.4507 13.6812 13.6109
v  -0.9468 13.2585 13.6109
v  -0.3288 13.0335 13.6109
v  0.3288 13.0335 13.6109
v  0.9468 13.2585 13.6109
v  1.4506 13.6812 13.6109
v  1.7795 14.2508 13.6109
v  1.8937 14.8984 13.6109
v  1.7795 15.5461 13.6109
v  1.4506 16.1157 13.6109
v  0.9468 16.5384 13.6109
v  0.3288 16.7634 13.6109
v  -0.3288 16.7634 13.6109
v  -0.9468 16.5384 13.6109
v  -1.4507 16.1157 13.6109
v  -1.7795 15.5461 13.6109
v  -1.7795 14.2508 18.5678
v  -1.8937 14.8984 18.5678
v  -1.4507 13.6812 18.5678
v  -0.9468 13.2585 18.5678
v  -0.3288 13.0335 18.5678
v  0.3288 13.0335 18.5678
v  0.9468 13.2585 18.5678
v  1.4506 13.6812 18.5678
v  1.7795 14.2508 18.5678
v  1.8937 14.8984 18.5678
v  1.7795 15.5461 18.5678
v  1.4506 16.1157 18.5678
v  0.9468 16.5384 18.5678
v  0.3288 16.7634 18.5678
v  -0.3288 16.7634 18.5678
v  -0.9468 16.5384 18.5678
v  -1.4507 16.1157 18.5678
v  -1.7795 15.5461 18.5678
v  -1.7795 14.2508 23.5247
v  -1.8937 14.8984 23.5247
v  -1.4507 13.6812 23.5247
v  -0.9468 13.2585 23.5247
v  -0.3288 13.0335 23.5247
v  0.3288 13.0335 23.5247
v  0.9468 13.2585 23.5247
v  1.4506 13.6812 23.5247
v  1.7795 14.2508 23.5247
v  1.8937 14.8984 23.5247
v  1.7795 15.5461 23.5247
v  1.4506 16.1157 23.5247
v  0.9468 16.5384 23.5247
v  0.3288 16.7634 23.5247
v  -0.3288 16.7634 23.5247
v  -0.9468 16.5384 23.5247
v  -1.4507 16.1157 23.5247
v  -1.7795 15.5461 23.5247
v  -1.7795 14.2508 28.4817
v  -1.8937 14.8984 28.4817
v  -1.4507 13.6812 28.4817
v  -0.9468 13.2585 28.4817
v  -0.3288 13.0335 28.4817
v  0.3288 13.0335 28.4817
v  0.9468 13.2585 28.4817
v  1.4506 13.6812 28.4817
v  1.7795 14.2508 28.4817
v  1.8937 14.8984 28.4817
v  1.7795 15.5461 28.4817
v  1.4506 16.1157 28.4817
v  0.9468 16.5384 28.4817
v  0.3288 16.7634 28.4817
v  -0.3288 16.7634 28.4817
v  -0.9468 16.5384 28.4817
v  -1.4507 16.1157 28.4817
v  -1.7795 15.5461 28.4817
v  -1.7795 14.2508 33.4386
v  -1.8937 14.8984 33.4386
v  -1.4507 13.6812 33.4386
v  -0.9469 13.2585 33.4386
v  -0.3288 13.0335 33.4386
v  0.3288 13.0335 33.4386
v  0.9468 13.2585 33.4386
v  1.4506 13.6812 33.4386
v  1.7795 14.2508 33.4386
v  1.8937 14.8984 33.4386
v  1.7795 15.5461 33.4386
v  1.4506 16.1157 33.4386
v  0.9468 16.5384 33.4386
v  0.3288 16.7634 33.4386
v  -0.3288 16.7634 33.4386
v  -0.9469 16.5384 33.4386
v  -1.4507 16.1157 33.4386
v  -1.7795 15.5461 33.4386
v  -0.0000 14.8984 33.4386
# 110 vertices

vn 0.0000 -0.0000 -1.0000
vn -0.5686 -0.4771 -0.6701
vn -0.6976 -0.2539 -0.6700
vn -0.7423 -0.0000 -0.6700
vn -0.1289 -0.7311 -0.6700
vn -0.3711 -0.6429 -0.6701
vn 0.3712 -0.6429 -0.6700
vn 0.1289 -0.7311 -0.6700
vn 0.6976 -0.2539 -0.6700
vn 0.5687 -0.4772 -0.6700
vn 0.6976 0.2539 -0.6700
vn 0.7423 -0.0000 -0.6700
vn 0.3711 0.6429 -0.6701
vn 0.5686 0.4771 -0.6701
vn -0.1289 0.7311 -0.6700
vn 0.1289 0.7311 -0.6700
vn -0.5687 0.4772 -0.6700
vn -0.3712 0.6429 -0.6700
vn -0.6976 0.2539 -0.6700
vn -0.9397 -0.3420 -0.0000
vn -1.0000 0.0000 -0.0000
vn -0.7661 -0.6428 -0.0000
vn -0.5000 -0.8660 -0.0000
vn -0.1736 -0.9848 0.0000
vn 0.1736 -0.9848 0.0000
vn 0.5000 -0.8660 0.0000
vn 0.7660 -0.6428 0.0000
vn 0.9397 -0.3420 0.0000
vn 1.0000 -0.0000 0.0000
vn 0.9397 0.3420 0.0000
vn 0.7661 0.6428 0.0000
vn 0.5000 0.8660 0.0000
vn 0.1736 0.9848 -0.0000
vn -0.1736 0.9848 -0.0000
vn -0.5000 0.8660 -0.0000
vn -0.7660 0.6428 -0.0000
vn -0.9397 0.3420 -0.0000
vn -0.6976 -0.2539 0.6700
vn -0.7423 0.0000 0.6700
vn -0.5686 -0.4771 0.6701
vn -0.3711 -0.6429 0.6701
vn -0.1289 -0.7311 0.6700
vn 0.1289 -0.7311 0.6700
vn 0.3712 -0.6429 0.6700
vn 0.5687 -0.4772 0.6700
vn 0.6976 -0.2539 0.6700
vn 0.7423 0.0000 0.6700
vn 0.6976 0.2539 0.6700
vn 0.5686 0.4771 0.6701
vn 0.3711 0.6429 0.6701
vn 0.1289 0.7311 0.6700
vn -0.1289 0.7311 0.6700
vn -0.3712 0.6429 0.6700
vn -0.5687 0.4772 0.6700
vn -0.6976 0.2539 0.6700
vn -0.0000 0.0000 1.0000
# 56 vertex normals

vt 1.8937 1.8649 0.0000
vt 3.3443 3.0822 0.0000
vt 3.6732 2.5126 0.0000
vt 3.7874 1.8649 0.0000
vt 2.2225 3.7298 0.0000
vt 2.8405 3.5049 0.0000
vt 0.9468 3.5049 0.0000
vt 1.5649 3.7298 0.0000
vt 0.1142 2.5126 0.0000
vt 0.4430 3.0822 0.0000
vt 0.1142 1.2172 0.0000
vt 0.0000 1.8649 0.0000
vt 0.9468 0.2249 0.0000
vt 0.4430 0.6477 0.0000
vt 2.2225 0.0000 0.0000
vt 1.5649 0.0000 0.0000
vt 3.3443 0.6477 0.0000
vt 2.8405 0.2249 0.0000
vt 3.6732 1.2172 0.0000
vt 8.9238 -0.0000 1.0000
vt 8.2628 -0.0000 1.0000
vt 8.2628 -16.1584 1.0000
vt 8.9238 -16.1584 1.0000
vt 7.6018 -0.0000 1.0000
vt 7.6018 -16.1584 1.0000
vt 6.9407 -0.0000 1.0000
vt 6.9407 -16.1584 1.0000
vt 6.2797 -0.0000 1.0000
vt 6.2797 -16.1584 1.0000
vt 5.6187 -0.0000 1.0000
vt 5.6187 -16.1584 1.0000
vt 4.9577 -0.0000 1.0000
vt 4.9577 -16.1584 1.0000
vt 4.2966 -0.0000 1.0000
vt 4.2966 -16.1584 1.0000
vt 3.6356 -0.0000 1.0000
vt 3.6356 -16.1584 1.0000
vt 2.9746 -0.0000 1.0000
vt 2.9746 -16.1584 1.0000
vt 2.3136 -0.0000 1.0000
vt 2.3136 -16.1584 1.0000
vt 1.6526 -0.0000 1.0000
vt 1.6526 -16.1584 1.0000
vt 0.9915 -0.0000 1.0000
vt 0.9915 -16.1584 1.0000
vt 0.3305 -0.0000 1.0000
vt 0.3305 -16.1584 1.0000
vt -0.3305 -0.0000 1.0000
vt -0.3305 -16.1584 1.0000
vt 11.5679 -0.0000 1.0000
vt 10.9069 -0.0000 1.0000
vt 10.9069 -16.1584 1.0000
vt 11.5679 -16.1584 1.0000
vt 10.2458 -0.0000 1.0000
vt 10.2458 -16.1584 1.0000
vt 9.5848 -0.0000 1.0000
vt 9.5848 -16.1584 1.0000
vt 8.2628 -32.3168 1.0000
vt 8.9238 -32.3168 1.0000
vt 7.6018 -32.3168 1.0000
vt 6.9407 -32.3168 1.0000
vt 6.2797 -32.3168 1.0000
vt 5.6187 -32.3168 1.0000
vt 4.9577 -32.3168 1.0000
vt 4.2966 -32.3168 1.0000
vt 3.6356 -32.3168 1.0000
vt 2.9746 -32.3168 1.0000
vt 2.3136 -32.3168 1.0000
vt 1.6526 -32.3168 1.0000
vt 0.9915 -32.3168 1.0000
vt 0.3305 -32.3168 1.0000
vt -0.3305 -32.3168 1.0000
vt 10.9069 -32.3168 1.0000
vt 11.5679 -32.3168 1.0000
vt 10.2458 -32.3168 1.0000
vt 9.5848 -32.3168 1.0000
vt 8.2628 -48.4752 1.0000
vt 8.9238 -48.4752 1.0000
vt 7.6018 -48.4752 1.0000
vt 6.9407 -48.4752 1.0000
vt 6.2797 -48.4752 1.0000
vt 5.6187 -48.4752 1.0000
vt 4.9577 -48.4752 1.0000
vt 4.2966 -48.4752 1.0000
vt 3.6356 -48.4752 1.0000
vt 2.9746 -48.4752 1.0000
vt 2.3136 -48.4752 1.0000
vt 1.6526 -48.4752 1.0000
vt 0.9915 -48.4752 1.0000
vt 0.3305 -48.4752 1.0000
vt -0.3305 -48.4752 1.0000
vt 10.9069 -48.4752 1.0000
vt 11.5679 -48.4752 1.0000
vt 10.2458 -48.4752 1.0000
vt 9.5848 -48.4752 1.0000
vt 8.2628 -64.6336 1.0000
vt 8.9238 -64.6336 1.0000
vt 7.6018 -64.6336 1.0000
vt 6.9407 -64.6336 1.0000
vt 6.2797 -64.6336 1.0000
vt 5.6187 -64.6336 1.0000
vt 4.9577 -64.6336 1.0000
vt 4.2966 -64.6336 1.0000
vt 3.6356 -64.6336 1.0000
vt 2.9746 -64.6336 1.0000
vt 2.3136 -64.6336 1.0000
vt 1.6526 -64.6336 1.0000
vt 0.9915 -64.6336 1.0000
vt 0.3305 -64.6336 1.0000
vt -0.3305 -64.6336 1.0000
vt 10.9069 -64.6336 1.0000
vt 11.5679 -64.6336 1.0000
vt 10.2458 -64.6336 1.0000
vt 9.5848 -64.6336 1.0000
vt 8.2628 -80.7920 1.0000
vt 8.9238 -80.7920 1.0000
vt 7.6018 -80.7920 1.0000
vt 6.9407 -80.7920 1.0000
vt 6.2797 -80.7920 1.0000
vt 5.6187 -80.7920 1.0000
vt 4.9577 -80.7920 1.0000
vt 4.2966 -80.7920 1.0000
vt 3.6356 -80.7920 1.0000
vt 2.9746 -80.7920 1.0000
vt 2.3136 -80.7920 1.0000
vt 1.6526 -80.7920 1.0000
vt 0.9915 -80.7920 1.0000
vt 0.3305 -80.7920 1.0000
vt -0.3305 -80.7920 1.0000
vt 10.9069 -80.7920 1.0000
vt 11.5679 -80.7920 1.0000
vt 10.2458 -80.7920 1.0000
vt 9.5848 -80.7920 1.0000
# 133 texture coords

o Cylinder009
g Cylinder009
usemtl wire_088144225
s 1
f 9/7/9 10/8/10 11/9/11 12/10/12 
f 9/7/9 13/11/13 14/12/14 10/8/10 
f 9/7/9 15/13/15 16/14/16 13/11/13 
f 9/7/9 17/15/17 18/16/18 15/13/15 
f 9/7/9 19/17/19 20/18/20 17/15/17 
f 9/7/9 21/19/21 22/20/22 19/17/19 
f 9/7/9 23/21/23 24/22/24 21/19/21 
f 9/7/9 25/23/25 26/24/26 23/21/23 
f 9/7/9 12/10/12 27/25/27 25/23/25 
s 8
f 12/26/12 11/27/11 28/28/28 29/29/29 
f 11/27/11 10/30/10 30/31/30 28/28/28 
f 10/30/10 14/32/14 31/33/31 30/31/30 
f 14/32/14 13/34/13 32/35/32 31/33/31 
f 13/34/13 16/36/16 33/37/33 32/35/32 
f 16/36/16 15/38/15 34/39/34 33/37/33 
f 15/38/15 18/40/18 35/41/35 34/39/34 
f 18/40/18 17/42/17 36/43/36 35/41/35 
f 17/42/17 20/44/20 37/45/37 36/43/36 
f 20/44/20 19/46/19 38/47/38 37/45/37 
f 19/46/19 22/48/22 39/49/39 38/47/38 
f 22/48/22 21/50/21 40/51/40 39/49/39 
f 21/50/21 24/52/24 41/53/41 40/51/40 
f 24/52/24 23/54/23 42/55/42 41/53/41 
f 23/56/23 26/57/26 43/58/43 42/59/42 
f 26/57/26 25/60/25 44/61/44 43/58/43 
f 25/60/25 27/62/27 45/63/45 44/61/44 
f 27/62/27 12/26/12 29/29/29 45/63/45 
f 29/29/29 28/28/28 46/64/28 47/65/29 
f 28/28/28 30/31/30 48/66/30 46/64/28 
f 30/31/30 31/33/31 49/67/31 48/66/30 
f 31/33/31 32/35/32 50/68/32 49/67/31 
f 32/35/32 33/37/33 51/69/33 50/68/32 
f 33/37/33 34/39/34 52/70/34 51/69/33 
f 34/39/34 35/41/35 53/71/35 52/70/34 
f 35/41/35 36/43/36 54/72/36 53/71/35 
f 36/43/36 37/45/37 55/73/37 54/72/36 
f 37/45/37 38/47/38 56/74/38 55/73/37 
f 38/47/38 39/49/39 57/75/39 56/74/38 
f 39/49/39 40/51/40 58/76/40 57/75/39 
f 40/51/40 41/53/41 59/77/41 58/76/40 
f 41/53/41 42/55/42 60/78/42 59/77/41 
f 42/59/42 43/58/43 61/79/43 60/80/42 
f 43/58/43 44/61/44 62/81/44 61/79/43 
f 44/61/44 45/63/45 63/82/45 62/81/44 
f 45/63/45 29/29/29 47/65/29 63/82/45 
f 47/65/29 46/64/28 64/83/28 65/84/29 
f 46/64/28 48/66/30 66/85/30 64/83/28 
f 48/66/30 49/67/31 67/86/31 66/85/30 
f 49/67/31 50/68/32 68/87/32 67/86/31 
f 50/68/32 51/69/33 69/88/33 68/87/32 
f 51/69/33 52/70/34 70/89/34 69/88/33 
f 52/70/34 53/71/35 71/90/35 70/89/34 
f 53/71/35 54/72/36 72/91/36 71/90/35 
f 54/72/36 55/73/37 73/92/37 72/91/36 
f 55/73/37 56/74/38 74/93/38 73/92/37 
f 56/74/38 57/75/39 75/94/39 74/93/38 
f 57/75/39 58/76/40 76/95/40 75/94/39 
f 58/76/40 59/77/41 77/96/41 76/95/40 
f 59/77/41 60/78/42 78/97/42 77/96/41 
f 60/80/42 61/79/43 79/98/43 78/99/42 
f 61/79/43 62/81/44 80/100/44 79/98/43 
f 62/81/44 63/82/45 81/101/45 80/100/44 
f 63/82/45 47/65/29 65/84/29 81/101/45 
f 65/84/29 64/83/28 82/102/28 83/103/29 
f 64/83/28 66/85/30 84/104/30 82/102/28 
f 66/85/30 67/86/31 85/105/31 84/104/30 
f 67/86/31 68/87/32 86/106/32 85/105/31 
f 68/87/32 69/88/33 87/107/33 86/106/32 
f 69/88/33 70/89/34 88/108/34 87/107/33 
f 70/89/34 71/90/35 89/109/35 88/108/34 
f 71/90/35 72/91/36 90/110/36 89/109/35 
f 72/91/36 73/92/37 91/111/37 90/110/36 
f 73/92/37 74/93/38 92/112/38 91/111/37 
f 74/93/38 75/94/39 93/113/39 92/112/38 
f 75/94/39 76/95/40 94/114/40 93/113/39 
f 76/95/40 77/96/41 95/115/41 94/114/40 
f 77/96/41 78/97/42 96/116/42 95/115/41 
f 78/99/42 79/98/43 97/117/43 96/118/42 
f 79/98/43 80/100/44 98/119/44 97/117/43 
f 80/100/44 81/101/45 99/120/45 98/119/44 
f 81/101/45 65/84/29 83/103/29 99/120/45 
f 83/103/29 82/102/28 100/121/46 101/122/47 
f 82/102/28 84/104/30 102/123/48 100/121/46 
f 84/104/30 85/105/31 103/124/49 102/123/48 
f 85/105/31 86/106/32 104/125/50 103/124/49 
f 86/106/32 87/107/33 105/126/51 104/125/50 
f 87/107/33 88/108/34 106/127/52 105/126/51 
f 88/108/34 89/109/35 107/128/53 106/127/52 
f 89/109/35 90/110/36 108/129/54 107/128/53 
f 90/110/36 91/111/37 109/130/55 108/129/54 
f 91/111/37 92/112/38 110/131/56 109/130/55 
f 92/112/38 93/113/39 111/132/57 110/131/56 
f 93/113/39 94/114/40 112/133/58 111/132/57 
f 94/114/40 95/115/41 113/134/59 112/133/58 
f 95/115/41 96/116/42 114/135/60 113/134/59 
f 96/118/42 97/117/43 115/136/61 114/137/60 
f 97/117/43 98/119/44 116/138/62 115/136/61 
f 98/119/44 99/120/45 117/139/63 116/138/62 
f 99/120/45 83/103/29 101/122/47 117/139/63 
s 1
f 118/7/64 117/9/63 101/10/47 100/25/46 
f 118/7/64 100/25/46 102/23/48 103/24/49 
f 118/7/64 103/24/49 104/21/50 105/22/51 
f 118/7/64 105/22/51 106/19/52 107/20/53 
f 118/7/64 107/20/53 108/17/54 109/18/55 
f 118/7/64 109/18/55 110/15/56 111/16/57 
f 118/7/64 111/16/57 112/13/58 113/14/59 
f 118/7/64 113/14/59 114/11/60 115/12/61 
f 118/7/64 115/12/61 116/8/62 117/9/63 
# 108 polygons

